<svg width="200" height="200" viewBox="0 0 200 200" fill="none" xmlns="http://www.w3.org/2000/svg">
<g clip-path="url(#clip0_681_26)">
<rect width="200" height="200" fill="none"/>
<circle cx="104.5" cy="100.5" r="94.5" fill="#750075"/>
<g style="mix-blend-mode:hard-light" opacity="0.9">
<path d="M76.4547 26.5723L106.335 73.227L121.013 54.8796L133.069 75.848L183.394 69.0333L219.04 70.6059L163.474 86.8564L179.2 125.648L157.183 98.9133L153.514 143.995H148.271L136.739 150.286L116.819 134.56H110.528L103.714 98.9133L-20 120.406L90.0841 84.2354L76.4547 26.5723Z" fill="#FCE0FC" fill-opacity="0.9"/>
<path d="M102.141 83.1865L103.19 78.4686L103.714 83.1865L121.013 84.7591L118.916 69.557L119.44 67.9844L123.11 84.7591L125.731 85.2833L125.206 86.8559L113.674 86.3317L73.3096 97.3401L73.8338 95.7675L110.004 85.2833L94.278 84.2349L94.8022 83.1865H102.141Z" fill="#750075"/>
<path d="M143.554 89.4791L135.69 75.8496H133.069L143.554 91.0517L141.981 124.601L143.554 126.174L145.65 86.3338L157.183 99.4391V97.3422L146.175 84.7612V81.6159C153.594 84.5515 156.605 80.7422 157.183 78.4707L162.425 87.3822H163.998L158.231 76.3738L155.61 75.8496C153.514 82.5595 148.446 80.7422 146.175 78.9949H144.602L143.554 89.4791Z" fill="#750075"/>
<path d="M127.828 91.5753L103.714 98.9143V100.487L127.828 94.1964L136.739 149.763L139.884 148.714L129.924 94.1964L131.497 92.6237L129.924 91.5753L127.828 86.8574V91.5753Z" fill="#750075"/>
</g>
</g>
<defs>
<clipPath id="clip0_681_26">
<rect width="200" height="200" fill="white"/>
</clipPath>
</defs>
</svg>
