<svg width="240" height="199" viewBox="0 0 240 199" fill="none" xmlns="http://www.w3.org/2000/svg">
<g clip-path="url(#clip0_681_26)">
<circle cx="124.5" cy="99.5" r="94.5" fill="#D52D7E"/>
<g style="mix-blend-mode:hard-light" opacity="0.9">
<path d="M96.4547 25.5723L126.335 72.227L141.013 53.8796L153.069 74.848L203.394 68.0333L239.04 69.6059L183.474 85.8564L199.2 124.648L177.183 97.9133L173.514 142.995H168.271L156.739 149.286L136.819 133.56H130.528L123.714 97.9133L0 119.406L110.084 83.2354L96.4547 25.5723Z" fill="#FAF2F6" fill-opacity="0.74"/>
<path d="M122.141 82.1865L123.19 77.4686L123.714 82.1865L141.013 83.7591L138.916 68.557L139.44 66.9844L143.11 83.7591L145.731 84.2833L145.206 85.8559L133.674 85.3317L93.3096 96.3401L93.8338 94.7675L130.004 84.2833L114.278 83.2349L114.802 82.1865H122.141Z" fill="#750075"/>
<path d="M163.554 88.4791L155.69 74.8496H153.069L163.554 90.0517L161.981 123.601L163.554 125.174L165.65 85.3338L177.183 98.4391V96.3422L166.175 83.7612V80.6159C173.594 83.5515 176.605 79.7422 177.183 77.4707L182.425 86.3822H183.998L178.231 75.3738L175.61 74.8496C173.514 81.5595 168.446 79.7422 166.175 77.9949H164.602L163.554 88.4791Z" fill="#750075"/>
<path d="M147.828 90.5753L123.714 97.9143V99.4869L147.828 93.1964L156.739 148.763L159.884 147.714L149.924 93.1964L151.497 91.6237L149.924 90.5753L147.828 85.8574V90.5753Z" fill="#750075"/>
</g>
</g>
<defs>
<clipPath id="clip0_681_26">
<rect width="239.04" height="199" fill="white"/>
</clipPath>
</defs>
</svg>
