<?xml version="1.0" encoding="UTF-8" standalone="no"?>
<!DOCTYPE svg PUBLIC "-//W3C//DTD SVG 1.1//EN" "http://www.w3.org/Graphics/SVG/1.1/DTD/svg11.dtd">
<svg width="100%" height="100%" viewBox="0 0 1037 859" version="1.1" xmlns="http://www.w3.org/2000/svg" xmlns:xlink="http://www.w3.org/1999/xlink" xml:space="preserve" xmlns:serif="http://www.serif.com/" style="fill-rule:evenodd;clip-rule:evenodd;stroke-linejoin:round;stroke-miterlimit:2;">
    <g transform="matrix(1,0,0,1,-4551,-19)">
        <g id="fist-middle" transform="matrix(0.439996,0,0,0.66359,2548.45,6.34059)">
            <rect x="4551.28" y="19.077" width="2355.98" height="1293.56" style="fill:none;"/>
            <g transform="matrix(2.31521,0,0,1.51446,-10715.4,-168.604)">
                <g transform="matrix(0.981657,0,0,0.995042,4081.25,-649.302)">
                    <path d="M3054,1587.71L3054.16,1602L3039.8,1602.16L3035.15,1595.06C3035.15,1595.06 3035.68,1583.36 2954.01,1575.81C2954.01,1575.81 3014.03,1573.21 3035.68,1583.36L3049.4,1584.51C3049.4,1584.51 3072.57,1555.03 3081.07,1556.23C3081.07,1556.23 3108.28,1538.39 3117.3,1527.25C3117.3,1527.25 3109.02,1546.18 3096.06,1554.77C3083.1,1563.36 3054,1587.71 3054,1587.71Z" style="fill:rgb(26,26,26);fill-rule:nonzero;"/>
                </g>
                <g transform="matrix(0.981657,0,0,0.995042,4081.25,-649.302)">
                    <path d="M2764.72,969.649L2777.24,991.378L2753.08,1005.31L2739.13,998.879C2739.13,998.879 2729.98,980.467 2585.29,1046.79C2585.29,1046.79 2684.63,985.563 2729.98,980.467L2754.18,969.143C2754.18,969.143 2768.11,901.898 2783.52,895.641C2783.52,895.641 2814.28,842.374 2819.98,816.717C2819.98,816.717 2822.21,853.593 2807.65,879.099C2793.08,904.605 2764.72,969.649 2764.72,969.649Z" style="fill:rgb(26,26,26);fill-rule:nonzero;"/>
                </g>
                <g transform="matrix(0.981657,0,0,0.995042,4081.25,-649.302)">
                    <path d="M3453.36,888.57L3451.91,911.411L3426.51,909.793L3419.16,897.858C3419.16,897.858 3421.5,879.244 3278.04,856.557C3278.04,856.557 3384.46,860.207 3421.5,879.244L3445.61,882.865C3445.61,882.865 3490.15,838.792 3505.02,841.824C3505.02,841.824 3555.3,816.881 3572.58,800.261C3572.58,800.261 3555.66,829.413 3531.71,841.439C3507.76,853.465 3453.36,888.57 3453.36,888.57Z" style="fill:rgb(26,26,26);fill-rule:nonzero;"/>
                </g>
                <g transform="matrix(0.981657,0,0,0.995042,4081.25,-649.302)">
                    <path d="M3227.2,1157.22L3237.49,1173.51L3255.61,1162.06L3256.22,1150.28C3256.22,1150.28 3246.98,1137.47 3343.81,1062.79C3343.81,1062.79 3266.66,1108.45 3246.98,1137.47L3230.63,1149.88C3230.63,1149.88 3179.94,1135.3 3170.17,1143.54C3170.17,1143.54 3122.96,1145.41 3103.48,1140.11C3103.48,1140.11 3127.75,1154.82 3150.3,1154.03C3172.85,1153.25 3227.2,1157.22 3227.2,1157.22Z" style="fill:rgb(26,26,26);fill-rule:nonzero;"/>
                </g>
            </g>
        </g>
    </g>
</svg>
