<?xml version="1.0" encoding="UTF-8" standalone="no"?>
<!DOCTYPE svg PUBLIC "-//W3C//DTD SVG 1.1//EN" "http://www.w3.org/Graphics/SVG/1.1/DTD/svg11.dtd">
<svg width="100%" height="100%" viewBox="0 0 1900 2672" version="1.1" xmlns="http://www.w3.org/2000/svg" xmlns:xlink="http://www.w3.org/1999/xlink" xml:space="preserve" xmlns:serif="http://www.serif.com/" style="fill-rule:evenodd;clip-rule:evenodd;stroke-linejoin:round;stroke-miterlimit:2;">
    <g transform="matrix(1,0,0,1,-2257.4,0)">
        <g id="fist-right" transform="matrix(0.847263,0,0,0.908412,1594.62,-2975.28)">
            <rect x="782.261" y="3275.25" width="2242.51" height="2941.4" style="fill:none;"/>
            <g transform="matrix(1,0,0,1,-2.36054,3.30247)">
                <g transform="matrix(1.18027,0,0,1.10082,-2994.98,2910.49)">
                    <path d="M4568.95,402.176C4569.22,402.529 4569.48,402.886 4569.74,403.245C4569.89,403.451 4570.04,403.654 4570.18,403.861C4570.55,404.386 4570.9,404.917 4571.25,405.455C4571.4,405.681 4571.53,405.911 4571.68,406.14C4571.91,406.509 4572.13,406.882 4572.35,407.257C4572.49,407.498 4572.63,407.738 4572.77,407.981C4573.04,408.46 4573.3,408.944 4573.55,409.432C4573.67,409.667 4573.79,409.904 4573.91,410.142C4574.14,410.608 4574.37,411.077 4574.59,411.55C4574.7,411.796 4574.81,412.044 4574.92,412.292C4575.1,412.709 4575.28,413.129 4575.46,413.551C4575.55,413.776 4575.64,413.999 4575.73,414.225C4575.97,414.832 4576.19,415.443 4576.41,416.058C4576.48,416.272 4576.55,416.487 4576.62,416.702C4576.77,417.155 4576.92,417.61 4577.05,418.067C4577.13,418.312 4577.2,418.557 4577.27,418.802C4577.42,419.331 4577.56,419.862 4577.69,420.395C4577.73,420.535 4577.77,420.673 4577.8,420.813C4577.96,421.462 4578.1,422.116 4578.23,422.772C4578.27,423.004 4578.31,423.236 4578.36,423.469C4578.44,423.956 4578.53,424.444 4578.6,424.933C4578.63,425.15 4578.67,425.366 4578.7,425.583C4578.79,426.254 4578.87,426.927 4578.94,427.603C4578.95,427.767 4578.96,427.931 4578.98,428.095C4579.03,428.639 4579.06,429.184 4579.09,429.73C4579.11,429.959 4579.12,430.188 4579.13,430.417C4579.15,430.983 4579.16,431.551 4579.16,432.12C4579.16,432.262 4579.17,432.404 4579.17,432.547C4579.17,433.242 4579.15,433.938 4579.12,434.634C4579.11,434.834 4579.09,435.035 4579.08,435.234C4579.05,435.773 4579.01,436.312 4578.96,436.851C4578.94,437.056 4578.92,437.259 4578.9,437.464C4578.83,438.169 4578.75,438.875 4578.64,439.58C4578.63,439.668 4578.61,439.756 4578.6,439.844C4578.5,440.473 4578.39,441.102 4578.27,441.729C4578.23,441.938 4578.19,442.145 4578.14,442.352C4578.03,442.927 4577.9,443.501 4577.76,444.075C4577.72,444.223 4577.69,444.371 4577.65,444.519C4577.47,445.223 4577.28,445.925 4577.07,446.626C4577.02,446.795 4576.96,446.962 4576.91,447.13C4576.73,447.687 4576.55,448.242 4576.35,448.796C4576.29,448.993 4576.22,449.189 4576.14,449.386C4575.89,450.088 4575.62,450.788 4575.33,451.484L4468.89,706.708L4466.97,705.775L4297.9,642.955L4248.86,624.731L4230.9,618.057L4233.96,612.723L4379.11,359.686C4391.8,337.55 4419.2,328.628 4442.5,339.042L4549.74,386.983C4556.85,390.159 4562.84,394.808 4567.53,400.406C4567.83,400.762 4568.12,401.121 4568.41,401.485C4568.59,401.713 4568.77,401.944 4568.95,402.176Z" style="fill:rgb(26,26,26);fill-rule:nonzero;"/>
                </g>
                <g transform="matrix(1.18027,0,0,1.10082,-2994.98,2910.49)">
                    <path d="M4752.01,546.06C4752.14,546.264 4752.27,546.47 4752.41,546.675C4752.67,547.077 4752.92,547.481 4753.17,547.889C4753.3,548.105 4753.43,548.32 4753.56,548.538C4753.9,549.11 4754.23,549.687 4754.54,550.271C4754.63,550.436 4754.71,550.604 4754.8,550.771C4755.04,551.232 4755.27,551.696 4755.5,552.165C4755.61,552.396 4755.72,552.627 4755.83,552.859C4756.05,553.339 4756.27,553.823 4756.47,554.31C4756.54,554.472 4756.62,554.632 4756.68,554.794C4756.94,555.412 4757.18,556.035 4757.41,556.662C4757.49,556.887 4757.57,557.114 4757.65,557.341C4757.81,557.811 4757.97,558.283 4758.12,558.757C4758.19,558.969 4758.26,559.18 4758.32,559.393C4758.52,560.037 4758.7,560.684 4758.87,561.335C4758.92,561.526 4758.96,561.717 4759.01,561.908C4759.14,562.415 4759.25,562.923 4759.36,563.434C4759.41,563.663 4759.46,563.891 4759.51,564.121C4759.63,564.749 4759.75,565.379 4759.85,566.013C4759.87,566.127 4759.88,566.242 4759.9,566.356C4760,566.987 4760.08,567.62 4760.15,568.255C4760.18,568.48 4760.2,568.706 4760.22,568.931C4760.28,569.475 4760.32,570.019 4760.36,570.565C4760.37,570.74 4760.38,570.914 4760.39,571.089C4760.43,571.782 4760.46,572.476 4760.46,573.172C4760.47,573.366 4760.46,573.561 4760.46,573.755C4760.46,574.302 4760.46,574.849 4760.44,575.397C4760.43,575.604 4760.43,575.811 4760.42,576.018C4760.39,576.724 4760.34,577.43 4760.28,578.136C4760.27,578.25 4760.26,578.365 4760.25,578.479C4760.19,579.092 4760.12,579.704 4760.04,580.316C4760.01,580.526 4759.98,580.737 4759.95,580.947C4759.86,581.567 4759.76,582.187 4759.64,582.805C4759.62,582.911 4759.61,583.017 4759.59,583.123C4759.45,583.833 4759.3,584.541 4759.13,585.249C4759.08,585.443 4759.03,585.637 4758.98,585.832C4758.84,586.396 4758.69,586.958 4758.53,587.52C4758.48,587.695 4758.43,587.872 4758.38,588.047C4758.16,588.751 4757.94,589.453 4757.69,590.152C4757.64,590.296 4757.59,590.44 4757.53,590.585C4757.33,591.161 4757.11,591.735 4756.88,592.307C4756.8,592.503 4756.72,592.699 4756.64,592.894C4756.35,593.589 4756.05,594.282 4755.72,594.97L4755.72,594.984L4700.75,704.962L4659.54,787.434L4586.88,757.006L4482.17,713.152L4572.65,510.184C4583.97,484.789 4613.92,473.62 4639.1,485.401L4731.82,528.778C4739.15,532.208 4745.24,537.208 4749.91,543.178C4749.9,543.169 4749.9,543.159 4749.9,543.15C4750.09,543.396 4750.28,543.647 4750.46,543.896C4750.6,544.074 4750.73,544.25 4750.86,544.43C4751.26,544.966 4751.64,545.51 4752.01,546.06Z" style="fill:rgb(26,26,26);fill-rule:nonzero;"/>
                </g>
                <g transform="matrix(1.18027,0,0,1.10082,-2994.98,2910.49)">
                    <path d="M4829.96,881.352L4829.75,881.349L4829.68,881.44L4829.24,881.435L4825.3,886.832L4810.6,906.996L4721.8,1028.73C4719.84,1031.41 4717.12,1033.35 4714.07,1034.36C4711.76,1035.17 4709.25,1035.45 4706.73,1035.1L4664.22,1029.24C4662.66,1029.02 4661.13,1028.57 4659.7,1027.9L4581.81,991.284C4573.24,987.258 4570.18,976.61 4575.3,968.648L4665.79,827.875L4672.92,816.796L4677.86,809.102L4677.92,804.703L4757.24,642.587C4770.39,616.261 4803.42,607.069 4828.28,622.811L4895.04,665.076C4899.67,668.007 4903.79,671.43 4907.4,675.217C4907.31,674.989 4907.22,674.758 4907.12,674.531C4928.36,696.231 4932.24,730.669 4914.43,756.914L4829.96,881.352Z" style="fill:rgb(26,26,26);fill-rule:nonzero;"/>
                </g>
                <g transform="matrix(1.18027,0,0,1.10082,-2994.98,2910.49)">
                    <path d="M5063.64,881.879C5063.63,881.999 5063.63,882.119 5063.62,882.238C5063.49,883.451 5063.34,884.661 5063.15,885.868C5063.1,886.209 5063.03,886.548 5062.97,886.889C5062.83,887.747 5062.68,888.605 5062.5,889.459C5062.41,889.908 5062.3,890.354 5062.2,890.8C5062.03,891.544 5061.87,892.287 5061.67,893.027C5061.55,893.512 5061.41,893.993 5061.27,894.476C5061.07,895.173 5060.87,895.87 5060.66,896.563C5060.5,897.061 5060.33,897.557 5060.16,898.053C5059.93,898.725 5059.7,899.394 5059.45,900.061C5059.26,900.562 5059.07,901.06 5058.87,901.558C5058.61,902.214 5058.34,902.867 5058.05,903.517C5057.84,904.012 5057.62,904.505 5057.39,904.996C5057.1,905.644 5056.79,906.286 5056.47,906.926C5056.23,907.409 5055.99,907.891 5055.73,908.369C5055.39,909.014 5055.04,909.652 5054.68,910.289C5054.42,910.75 5054.16,911.213 5053.89,911.67C5053.5,912.326 5053.08,912.972 5052.67,913.619C5052.4,914.044 5052.13,914.473 5051.85,914.895C5051.38,915.599 5050.88,916.292 5050.38,916.984C5050.13,917.333 5049.89,917.688 5049.63,918.035C5048.87,919.055 5048.07,920.062 5047.25,921.052C5047.24,921.063 5047.23,921.074 5047.22,921.084L5022.37,950.801L4987.13,992.943C4987.13,992.959 4987.14,992.975 4987.15,992.991C4987.15,993.01 4987.16,993.029 4987.16,993.048L4986.18,994.15L4985.2,995.252L4948.74,1033.95L4912.28,1072.65L4908.44,1076.78L4900.78,1085.05C4899.23,1086.72 4897.44,1088.13 4895.48,1089.25C4894.31,1089.92 4893.07,1090.49 4891.78,1090.94L4853.78,1104.21C4852.9,1104.52 4852,1104.77 4851.09,1104.96C4849.72,1105.26 4848.33,1105.42 4846.94,1105.45C4846.44,1105.46 4845.94,1105.45 4845.44,1105.43C4844.55,1105.39 4843.65,1105.3 4842.76,1105.15L4798.06,1097.69C4797.51,1097.6 4796.96,1097.49 4796.42,1097.35C4795.69,1097.17 4794.97,1096.94 4794.26,1096.69C4791.33,1095.65 4788.63,1094.01 4786.35,1091.84L4747.93,1055.25C4747.43,1054.76 4746.95,1054.26 4746.5,1053.74C4746.34,1053.57 4746.21,1053.38 4746.07,1053.2C4745.78,1052.85 4745.49,1052.5 4745.22,1052.14C4745.07,1051.92 4744.93,1051.69 4744.78,1051.46C4744.55,1051.13 4744.32,1050.79 4744.12,1050.44C4743.97,1050.2 4743.85,1049.94 4743.71,1049.69C4743.53,1049.35 4743.34,1049.02 4743.18,1048.68C4743.05,1048.41 4742.95,1048.13 4742.83,1047.86C4742.69,1047.53 4742.54,1047.19 4742.41,1046.85C4742.3,1046.56 4742.22,1046.28 4742.13,1045.99C4742.02,1045.65 4741.9,1045.31 4741.81,1044.96C4741.73,1044.67 4741.67,1044.37 4741.6,1044.08C4741.52,1043.73 4741.44,1043.39 4741.38,1043.04C4741.32,1042.74 4741.29,1042.44 4741.25,1042.14C4741.2,1041.79 4741.15,1041.44 4741.12,1041.09C4741.09,1040.79 4741.08,1040.48 4741.06,1040.17C4741.05,1039.83 4741.03,1039.48 4741.03,1039.13C4741.03,1038.82 4741.04,1038.51 4741.06,1038.2C4741.07,1037.86 4741.08,1037.51 4741.11,1037.16C4741.14,1036.85 4741.18,1036.54 4741.22,1036.23C4741.27,1035.89 4741.31,1035.55 4741.37,1035.21C4741.43,1034.9 4741.49,1034.59 4741.56,1034.28C4741.64,1033.95 4741.71,1033.61 4741.81,1033.27C4741.89,1032.97 4741.98,1032.67 4742.08,1032.36C4742.18,1032.03 4742.29,1031.7 4742.42,1031.37C4742.53,1031.07 4742.65,1030.78 4742.77,1030.48C4742.91,1030.16 4743.05,1029.83 4743.2,1029.51C4743.34,1029.22 4743.49,1028.94 4743.64,1028.65C4743.81,1028.33 4743.98,1028.02 4744.17,1027.72C4744.33,1027.44 4744.51,1027.16 4744.69,1026.88C4744.79,1026.73 4744.88,1026.57 4744.98,1026.42C4744.99,1026.42 4744.99,1026.43 4745,1026.44C4745.2,1026.15 4745.38,1025.85 4745.6,1025.57L4785.24,973.733C4786.14,972.555 4786.88,971.275 4787.54,969.944C4788.9,967.194 4790.51,964.525 4792.44,961.99L4842.78,895.868L4908.55,809.479C4933.39,776.849 4980.44,771.533 5011.94,797.797L5038.1,819.614C5051.98,831.189 5060.38,846.886 5063.04,863.43C5063.05,863.411 5063.05,863.393 5063.06,863.375C5063.1,863.619 5063.12,863.865 5063.16,864.11C5063.26,864.81 5063.35,865.511 5063.44,866.213C5063.5,866.716 5063.56,867.218 5063.61,867.722C5063.68,868.438 5063.74,869.156 5063.79,869.874C5063.82,870.365 5063.86,870.855 5063.89,871.347C5063.92,872.093 5063.94,872.839 5063.95,873.586C5063.96,874.051 5063.98,874.515 5063.98,874.979C5063.98,875.795 5063.95,876.612 5063.92,877.428C5063.91,877.822 5063.91,878.217 5063.89,878.611C5063.83,879.701 5063.75,880.791 5063.64,881.879Z" style="fill:rgb(26,26,26);fill-rule:nonzero;"/>
                </g>
                <g transform="matrix(1.18027,0,0,1.10082,-2994.98,2910.49)">
                    <path d="M4909.29,2056L5053,3000L4113,3000L4197.7,2056L4909.29,2056Z" style="fill:rgb(26,26,26);fill-rule:nonzero;"/>
                </g>
                <g transform="matrix(1.18027,0,0,1.10082,-2994.98,2910.49)">
                    <path d="M4014.65,951.975L4168.38,666.5C4174.74,654.705 4183.66,645.093 4194.09,638.012L4214.89,645.93L4455.86,737.882L4470.67,743.531L4554.26,775.442L4654.8,813.782L4597.05,894.439C4570.13,932.034 4524.86,951.779 4479.22,946.102C4477.81,945.943 4476.36,945.751 4474.96,945.514L4311.91,919.655L4290.5,868.812L4302.69,926.736L4302.66,926.765L4180.7,935.913L4311.33,935.913C4319.27,937.822 4326.92,939.64 4334.23,941.363L4238.65,995.389L4366.94,948.984C4367.1,949.019 4367.25,949.056 4367.41,949.091L4510.1,1195.17L4411.47,959.041C4413.13,959.405 4414.77,959.76 4416.37,960.109L4728.18,1225.67L4448.65,966.733C4474.53,971.649 4492.17,973.746 4511.94,974.758C4528.69,975.638 4542.52,975.51 4551.53,975.264L4529.25,996.99L4678,1064.88C4702.48,1057.06 4729.28,1063.39 4747.67,1081.31L4793.47,1125.97C4800.57,1132.84 4810.42,1136.05 4820.21,1134.63L4877.38,1126.39C4884.57,1125.34 4891.17,1121.9 4896.12,1116.64L4991.04,1016.07L4995.49,1011.73C4997.94,1023.38 4996.04,1027.89 4993.02,1040.03L4918.32,1335.17C4914.12,1352.11 4904.5,1367.21 4890.94,1378.22C4853.95,1408.23 4834.31,1454.66 4838.54,1502.11L4859.6,1667L4227.13,1667L4243.87,1445.68L4443.56,1449.7L4240.93,1395.37C4238.98,1389.79 4236.42,1384.41 4233.27,1379.34L4017.23,1032.84C4001.92,1008.26 4000.95,977.404 4014.65,951.975Z" style="fill:rgb(26,26,26);fill-rule:nonzero;"/>
                </g>
                <g transform="matrix(1.18027,0,0,1.10082,-2994.98,2910.49)">
                    <path d="M4900,1696.27L4924.81,2026.73L4779.05,2026.73L4753,1839.7L4749.05,2026.73L4179.81,2026.73L4194,1696.27L4303.25,1696.27L4339.48,1882.89L4333.45,1696.27L4900,1696.27Z" style="fill:rgb(26,26,26);fill-rule:nonzero;"/>
                </g>
                <g transform="matrix(1.18027,0,0,1.10082,-2994.98,2910.49)">
                    <path d="M3988.01,1939.21C3982.29,1961.46 3962.05,1977.96 3938.03,1977.96L3773.1,1977.97C3748.99,1977.97 3728.69,1961.36 3723.05,1938.98L3671.53,1938.98C3677.76,1989.49 3720.94,2028.71 3773.1,2028.71L3938.04,2028.7C3990.11,2028.69 4033.23,1989.59 4039.57,1939.21L3988.01,1939.21Z" style="fill:rgb(26,26,26);fill-rule:nonzero;"/>
                </g>
                <g transform="matrix(1.18027,0,0,1.10082,-2994.98,2910.49)">
                    <path d="M3773.09,1834.89L3938.02,1834.88C3962.22,1834.87 3982.58,1851.61 3988.13,1874.12L4039.62,1874.12C4033.5,1823.49 3990.27,1784.13 3938.02,1784.14L3773.08,1784.15C3720.92,1784.15 3677.75,1823.38 3671.52,1873.89L3723.04,1873.88C3728.68,1851.5 3748.98,1834.89 3773.09,1834.89Z" style="fill:rgb(26,26,26);fill-rule:nonzero;"/>
                </g>
                <g transform="matrix(1.18027,0,0,1.10082,-2994.98,2910.49)">
                    <path d="M3981.88,1885.73L4192.74,1868.32C4205.58,1867.26 4216.86,1876.82 4217.92,1889.66C4218.98,1902.51 4209.43,1913.78 4196.58,1914.84L3985.72,1932.25C3972.87,1933.31 3961.6,1923.76 3960.54,1910.91C3959.48,1898.07 3969.03,1886.79 3981.88,1885.73Z" style="fill:rgb(26,26,26);fill-rule:nonzero;"/>
                </g>
                <g transform="matrix(1.18027,0,0,1.10082,-2994.98,2910.49)">
                    <path d="M3532.83,1859.25L3742.71,1886C3755.5,1887.63 3764.54,1899.32 3762.91,1912.11C3761.28,1924.89 3749.59,1933.94 3736.81,1932.31L3526.93,1905.55C3514.14,1903.92 3505.09,1892.23 3506.72,1879.45C3508.36,1866.66 3520.04,1857.62 3532.83,1859.25Z" style="fill:rgb(26,26,26);fill-rule:nonzero;"/>
                </g>
                <g transform="matrix(1.18027,0,0,1.10082,-2994.98,2910.49)">
                    <path d="M3499.92,1803.52C3523.62,1807.92 3540.54,1827.95 3542.01,1850.99L3592.67,1860.39C3595.75,1809.59 3560.46,1763.15 3509.18,1753.63L3364.24,1726.73L3355.73,1776.76L3499.92,1803.52Z" style="fill:rgb(26,26,26);fill-rule:nonzero;"/>
                </g>
                <g transform="matrix(1.18027,0,0,1.10082,-2994.98,2910.49)">
                    <path d="M3530.13,1914.99C3520.5,1935.96 3497.51,1948.59 3473.81,1944.2L3311.64,1914.1C3299.86,1911.91 3289.76,1905.86 3282.39,1897.5L3236.66,1921.16C3251.5,1942.82 3274.59,1958.83 3302.38,1963.99L3464.55,1994.08C3515.84,2003.6 3565.44,1972.91 3580.79,1924.39L3530.13,1914.99Z" style="fill:rgb(26,26,26);fill-rule:nonzero;"/>
                </g>
            </g>
        </g>
    </g>
</svg>
