<?xml version="1.0" encoding="UTF-8" standalone="no"?>
<!DOCTYPE svg PUBLIC "-//W3C//DTD SVG 1.1//EN" "http://www.w3.org/Graphics/SVG/1.1/DTD/svg11.dtd">
<svg width="100%" height="100%" viewBox="0 0 1900 2672" version="1.1" xmlns="http://www.w3.org/2000/svg" xmlns:xlink="http://www.w3.org/1999/xlink" xml:space="preserve" xmlns:serif="http://www.serif.com/" style="fill-rule:evenodd;clip-rule:evenodd;stroke-linejoin:round;stroke-miterlimit:2;">
    <g id="fist-left" transform="matrix(0.847263,0,0,0.908412,-662.78,-2975.28)">
        <rect x="782.261" y="3275.25" width="2242.51" height="2941.4" style="fill:none;"/>
        <g transform="matrix(1.00004,0,0,0.999844,-499.479,542.3)">
            <g transform="matrix(1.18023,0,0,1.10099,227.165,2371.38)">
                <path d="M2009.97,1803.4C2016.51,1781.37 2037.33,1765.63 2061.33,1766.5L2226.16,1772.51C2250.25,1773.38 2269.93,1790.73 2274.75,1813.3L2326.24,1815.17C2321.85,1764.47 2280.13,1723.7 2228,1721.8L2063.18,1715.8C2011.13,1713.91 1966.62,1751.41 1958.45,1801.53L2009.97,1803.4Z" style="fill:rgb(26,26,26);fill-rule:nonzero;"/>
            </g>
            <g transform="matrix(1.18023,0,0,1.10099,227.165,2371.38)">
                <path d="M2220.95,1915.49L2056.12,1909.49C2031.94,1908.61 2012.21,1891.14 2007.48,1868.45L1956.02,1869.57C1960.3,1920.39 2002.06,1958.3 2054.28,1960.2L2219.11,1966.2C2271.24,1968.1 2315.8,1930.46 2323.87,1880.22L2272.38,1878.35C2265.93,1900.5 2245.04,1916.37 2220.95,1915.49Z" style="fill:rgb(26,26,26);fill-rule:nonzero;"/>
            </g>
            <g transform="matrix(1.18023,0,0,1.10099,227.165,2371.38)">
                <path d="M2014.82,1861.69L1803.96,1879.1C1791.12,1880.16 1779.84,1870.6 1778.78,1857.76C1777.72,1844.91 1787.28,1833.64 1800.12,1832.58L2010.98,1815.17C2023.83,1814.11 2035.1,1823.66 2036.16,1836.51C2037.23,1849.35 2027.67,1860.63 2014.82,1861.69Z" style="fill:rgb(26,26,26);fill-rule:nonzero;"/>
            </g>
            <g transform="matrix(1.18023,0,0,1.10099,227.165,2371.38)">
                <path d="M2463.87,1888.18L2253.99,1861.42C2241.21,1859.79 2232.16,1848.1 2233.79,1835.32C2235.42,1822.53 2247.11,1813.48 2259.9,1815.11L2469.78,1841.87C2482.56,1843.5 2491.61,1855.19 2489.98,1867.98C2488.35,1880.76 2476.66,1889.81 2463.87,1888.18Z" style="fill:rgb(26,26,26);fill-rule:nonzero;"/>
            </g>
            <g transform="matrix(1.18023,0,0,1.10099,227.165,2371.38)">
                <path d="M2496.78,1943.91C2473.08,1939.51 2456.16,1919.47 2454.69,1896.43L2404.04,1887.03C2400.95,1937.83 2436.24,1984.27 2487.52,1993.79L2632.46,2020.69L2640.97,1970.66L2496.78,1943.91Z" style="fill:rgb(26,26,26);fill-rule:nonzero;"/>
            </g>
            <g transform="matrix(1.18023,0,0,1.10099,227.165,2371.38)">
                <path d="M2776.27,1902.74C2786.57,1847.25 2749.8,1793.73 2694.32,1783.44L2532.15,1753.34C2480.86,1743.82 2431.26,1774.51 2415.91,1823.03L2466.57,1832.43C2476.2,1811.46 2499.19,1798.83 2522.89,1803.22L2685.06,1833.32C2710.39,1838.02 2727.98,1860.58 2727.23,1885.57L2773.35,1918.46L2776.27,1902.74Z" style="fill:rgb(26,26,26);fill-rule:nonzero;"/>
            </g>
            <g transform="matrix(1.18023,0,0,1.10099,227.165,2371.38)">
                <path d="M1431.05,402.176C1430.78,402.529 1430.52,402.886 1430.26,403.245C1430.11,403.451 1429.96,403.654 1429.82,403.861C1429.45,404.386 1429.1,404.917 1428.75,405.455C1428.6,405.681 1428.47,405.911 1428.32,406.14C1428.09,406.509 1427.87,406.882 1427.65,407.257C1427.51,407.498 1427.37,407.738 1427.23,407.981C1426.96,408.46 1426.7,408.944 1426.45,409.432C1426.33,409.667 1426.21,409.904 1426.09,410.142C1425.86,410.608 1425.63,411.077 1425.41,411.55C1425.3,411.796 1425.19,412.044 1425.08,412.292C1424.9,412.709 1424.72,413.129 1424.54,413.551C1424.45,413.776 1424.36,413.999 1424.27,414.225C1424.03,414.832 1423.81,415.443 1423.59,416.058C1423.52,416.272 1423.45,416.487 1423.38,416.702C1423.23,417.155 1423.08,417.61 1422.95,418.067C1422.87,418.312 1422.8,418.557 1422.73,418.802C1422.58,419.331 1422.44,419.862 1422.31,420.395C1422.27,420.535 1422.23,420.673 1422.2,420.813C1422.04,421.462 1421.9,422.116 1421.77,422.772C1421.73,423.004 1421.69,423.236 1421.64,423.469C1421.56,423.956 1421.47,424.444 1421.4,424.933C1421.37,425.15 1421.33,425.366 1421.3,425.583C1421.21,426.254 1421.13,426.927 1421.06,427.603C1421.05,427.767 1421.04,427.931 1421.02,428.095C1420.97,428.639 1420.94,429.184 1420.91,429.73C1420.89,429.959 1420.88,430.188 1420.87,430.417C1420.85,430.983 1420.84,431.551 1420.84,432.12C1420.84,432.262 1420.83,432.404 1420.83,432.547C1420.83,433.242 1420.85,433.938 1420.89,434.634C1420.89,434.834 1420.91,435.035 1420.92,435.234C1420.95,435.773 1420.99,436.312 1421.04,436.851C1421.06,437.056 1421.08,437.259 1421.1,437.464C1421.17,438.169 1421.25,438.875 1421.36,439.58C1421.37,439.668 1421.39,439.756 1421.4,439.844C1421.5,440.473 1421.61,441.102 1421.73,441.729C1421.77,441.938 1421.81,442.145 1421.85,442.352C1421.97,442.927 1422.1,443.501 1422.24,444.075C1422.28,444.223 1422.31,444.371 1422.35,444.519C1422.53,445.223 1422.72,445.925 1422.93,446.626C1422.98,446.795 1423.04,446.962 1423.09,447.13C1423.27,447.687 1423.45,448.242 1423.65,448.796C1423.71,448.993 1423.78,449.189 1423.86,449.386C1424.11,450.088 1424.38,450.788 1424.67,451.484L1531.11,706.708L1533.03,705.775L1702.1,642.955L1751.14,624.731L1769.1,618.057L1766.04,612.723L1620.89,359.686C1608.2,337.55 1580.8,328.628 1557.5,339.042L1450.26,386.983C1443.15,390.159 1437.16,394.808 1432.47,400.406C1432.17,400.762 1431.88,401.121 1431.59,401.485C1431.41,401.713 1431.23,401.944 1431.05,402.176Z" style="fill:rgb(26,26,26);fill-rule:nonzero;"/>
            </g>
            <g transform="matrix(1.18023,0,0,1.10099,227.165,2371.38)">
                <path d="M1247.99,546.06C1247.86,546.264 1247.73,546.47 1247.59,546.675C1247.33,547.077 1247.08,547.481 1246.83,547.889C1246.7,548.105 1246.56,548.32 1246.44,548.538C1246.1,549.11 1245.77,549.687 1245.46,550.271C1245.37,550.436 1245.29,550.604 1245.2,550.771C1244.96,551.232 1244.73,551.696 1244.5,552.165C1244.39,552.396 1244.28,552.627 1244.17,552.859C1243.95,553.339 1243.73,553.823 1243.53,554.31C1243.46,554.472 1243.38,554.632 1243.32,554.794C1243.06,555.412 1242.82,556.035 1242.59,556.662C1242.51,556.887 1242.43,557.114 1242.35,557.341C1242.19,557.811 1242.03,558.283 1241.88,558.757C1241.81,558.969 1241.74,559.18 1241.68,559.393C1241.48,560.037 1241.3,560.684 1241.13,561.335C1241.08,561.526 1241.04,561.717 1240.99,561.908C1240.86,562.415 1240.75,562.923 1240.64,563.434C1240.59,563.663 1240.54,563.891 1240.49,564.121C1240.37,564.749 1240.25,565.379 1240.15,566.013C1240.13,566.127 1240.12,566.242 1240.1,566.356C1240,566.987 1239.92,567.62 1239.85,568.255C1239.82,568.48 1239.8,568.706 1239.78,568.931C1239.72,569.475 1239.68,570.019 1239.64,570.565C1239.63,570.74 1239.62,570.914 1239.61,571.089C1239.57,571.782 1239.55,572.476 1239.54,573.172C1239.53,573.366 1239.54,573.561 1239.54,573.755C1239.53,574.302 1239.54,574.849 1239.56,575.397C1239.57,575.604 1239.57,575.811 1239.58,576.018C1239.61,576.724 1239.66,577.43 1239.72,578.136C1239.73,578.25 1239.74,578.365 1239.75,578.479C1239.81,579.092 1239.88,579.704 1239.96,580.316C1239.99,580.526 1240.02,580.737 1240.05,580.947C1240.14,581.567 1240.24,582.187 1240.36,582.805C1240.38,582.911 1240.39,583.017 1240.41,583.123C1240.55,583.833 1240.7,584.541 1240.87,585.249C1240.92,585.443 1240.97,585.637 1241.02,585.832C1241.16,586.396 1241.31,586.958 1241.47,587.52C1241.52,587.695 1241.57,587.872 1241.62,588.047C1241.84,588.751 1242.06,589.453 1242.31,590.152C1242.36,590.296 1242.41,590.44 1242.47,590.585C1242.67,591.161 1242.89,591.735 1243.12,592.307C1243.2,592.503 1243.28,592.699 1243.36,592.894C1243.65,593.589 1243.95,594.282 1244.28,594.97L1244.28,594.984L1299.25,704.962L1340.46,787.434L1413.12,757.006L1517.83,713.152L1427.35,510.184C1416.03,484.789 1386.08,473.62 1360.9,485.401L1268.18,528.778C1260.85,532.208 1254.76,537.208 1250.09,543.178C1250.1,543.169 1250.1,543.159 1250.1,543.15C1249.91,543.396 1249.73,543.647 1249.54,543.896C1249.4,544.074 1249.27,544.25 1249.14,544.43C1248.74,544.966 1248.36,545.51 1247.99,546.06Z" style="fill:rgb(26,26,26);fill-rule:nonzero;"/>
            </g>
            <g transform="matrix(1.18023,0,0,1.10099,227.165,2371.38)">
                <path d="M1170.04,881.352L1170.25,881.349L1170.32,881.44L1170.76,881.435L1174.7,886.832L1189.4,906.996L1278.2,1028.73C1280.16,1031.41 1282.88,1033.35 1285.93,1034.36C1288.24,1035.17 1290.75,1035.45 1293.27,1035.1L1335.78,1029.24C1337.34,1029.02 1338.87,1028.57 1340.3,1027.9L1418.19,991.284C1426.76,987.258 1429.82,976.61 1424.7,968.648L1334.21,827.875L1327.08,816.796L1322.14,809.102L1322.08,804.703L1242.76,642.587C1229.61,616.261 1196.58,607.069 1171.72,622.811L1104.96,665.076C1100.33,668.007 1096.21,671.43 1092.6,675.217C1092.69,674.989 1092.78,674.758 1092.88,674.531C1071.64,696.231 1067.76,730.669 1085.57,756.914L1170.04,881.352Z" style="fill:rgb(26,26,26);fill-rule:nonzero;"/>
            </g>
            <g transform="matrix(1.18023,0,0,1.10099,227.165,2371.38)">
                <path d="M936.355,881.879C936.367,881.999 936.372,882.119 936.384,882.238C936.507,883.451 936.663,884.661 936.848,885.868C936.9,886.209 936.97,886.548 937.027,886.889C937.171,887.747 937.319,888.605 937.495,889.459C937.587,889.908 937.698,890.354 937.798,890.8C937.966,891.544 938.135,892.287 938.327,893.027C938.453,893.512 938.594,893.993 938.73,894.476C938.927,895.173 939.126,895.87 939.345,896.563C939.502,897.061 939.671,897.557 939.839,898.053C940.067,898.725 940.301,899.394 940.55,900.061C940.737,900.562 940.932,901.06 941.13,901.558C941.392,902.214 941.664,902.867 941.945,903.517C942.16,904.012 942.379,904.505 942.605,904.996C942.903,905.644 943.215,906.286 943.534,906.926C943.774,907.409 944.014,907.891 944.266,908.369C944.605,909.014 944.962,909.652 945.323,910.289C945.584,910.75 945.841,911.213 946.113,911.67C946.503,912.326 946.917,912.972 947.33,913.619C947.602,914.044 947.865,914.473 948.147,914.895C948.62,915.599 949.119,916.292 949.619,916.984C949.871,917.333 950.11,917.688 950.37,918.035C951.135,919.055 951.927,920.062 952.754,921.052C952.763,921.063 952.771,921.074 952.78,921.084L977.63,950.801L1012.87,992.943C1012.87,992.959 1012.86,992.975 1012.85,992.991C1012.85,993.01 1012.84,993.029 1012.84,993.048L1013.82,994.15L1014.8,995.252L1051.26,1033.95L1087.72,1072.65L1091.56,1076.78L1099.22,1085.05C1100.77,1086.72 1102.56,1088.13 1104.52,1089.25C1105.69,1089.92 1106.93,1090.49 1108.22,1090.94L1146.22,1104.21C1147.1,1104.52 1148,1104.77 1148.91,1104.96C1150.28,1105.26 1151.67,1105.42 1153.06,1105.45C1153.56,1105.46 1154.06,1105.45 1154.56,1105.43C1155.45,1105.39 1156.35,1105.3 1157.24,1105.15L1201.94,1097.69C1202.49,1097.6 1203.04,1097.49 1203.57,1097.35C1204.31,1097.17 1205.03,1096.94 1205.74,1096.69C1208.67,1095.65 1211.37,1094.01 1213.65,1091.84L1252.07,1055.25C1252.57,1054.76 1253.05,1054.26 1253.5,1053.74C1253.66,1053.57 1253.79,1053.38 1253.94,1053.2C1254.22,1052.85 1254.51,1052.5 1254.78,1052.14C1254.93,1051.92 1255.07,1051.69 1255.22,1051.46C1255.45,1051.13 1255.68,1050.79 1255.88,1050.44C1256.03,1050.2 1256.15,1049.94 1256.29,1049.69C1256.47,1049.35 1256.66,1049.02 1256.82,1048.68C1256.95,1048.41 1257.05,1048.13 1257.17,1047.86C1257.31,1047.53 1257.46,1047.19 1257.59,1046.85C1257.7,1046.56 1257.78,1046.28 1257.87,1045.99C1257.98,1045.65 1258.1,1045.31 1258.19,1044.96C1258.27,1044.67 1258.33,1044.37 1258.4,1044.08C1258.48,1043.73 1258.56,1043.39 1258.62,1043.04C1258.68,1042.74 1258.71,1042.44 1258.75,1042.14C1258.8,1041.79 1258.85,1041.44 1258.88,1041.09C1258.91,1040.79 1258.92,1040.48 1258.94,1040.17C1258.95,1039.83 1258.97,1039.48 1258.97,1039.13C1258.97,1038.82 1258.96,1038.51 1258.94,1038.2C1258.93,1037.86 1258.92,1037.51 1258.89,1037.16C1258.86,1036.85 1258.82,1036.54 1258.78,1036.23C1258.73,1035.89 1258.69,1035.55 1258.63,1035.21C1258.57,1034.9 1258.51,1034.59 1258.44,1034.28C1258.36,1033.95 1258.29,1033.61 1258.19,1033.27C1258.11,1032.97 1258.02,1032.67 1257.92,1032.36C1257.82,1032.03 1257.71,1031.7 1257.58,1031.37C1257.47,1031.07 1257.35,1030.78 1257.23,1030.48C1257.09,1030.16 1256.95,1029.83 1256.8,1029.51C1256.66,1029.22 1256.51,1028.94 1256.36,1028.65C1256.19,1028.33 1256.02,1028.02 1255.83,1027.72C1255.67,1027.44 1255.49,1027.16 1255.31,1026.88C1255.21,1026.73 1255.12,1026.57 1255.02,1026.42C1255.01,1026.42 1255.01,1026.43 1255,1026.44C1254.8,1026.15 1254.62,1025.85 1254.4,1025.57L1214.76,973.733C1213.86,972.555 1213.12,971.275 1212.46,969.944C1211.1,967.194 1209.49,964.525 1207.56,961.99L1157.22,895.868L1091.45,809.479C1066.61,776.849 1019.56,771.533 988.065,797.797L961.901,819.614C948.019,831.189 939.62,846.886 936.955,863.43C936.952,863.411 936.947,863.393 936.944,863.375C936.904,863.619 936.881,863.865 936.845,864.11C936.739,864.81 936.646,865.511 936.56,866.213C936.499,866.716 936.438,867.218 936.388,867.722C936.316,868.438 936.261,869.156 936.211,869.874C936.176,870.365 936.139,870.855 936.114,871.347C936.077,872.093 936.061,872.839 936.047,873.586C936.038,874.051 936.021,874.515 936.021,874.979C936.022,875.795 936.048,876.612 936.076,877.428C936.09,877.822 936.091,878.217 936.111,878.611C936.167,879.701 936.25,880.791 936.355,881.879Z" style="fill:rgb(26,26,26);fill-rule:nonzero;"/>
            </g>
            <g transform="matrix(1.18023,0,0,1.10099,227.165,2371.38)">
                <path d="M1090.71,2056L955,3000L1880,3000L1802.3,2056L1090.71,2056Z" style="fill:rgb(26,26,26);fill-rule:nonzero;"/>
            </g>
            <g transform="matrix(1.18023,0,0,1.10099,227.165,2371.38)">
                <path d="M1985.35,951.975L1831.62,666.5C1825.26,654.705 1816.34,645.093 1805.91,638.012L1785.11,645.93L1544.14,737.882L1529.33,743.531L1445.74,775.442L1345.2,813.782L1402.95,894.439C1429.87,932.034 1475.14,951.779 1520.78,946.102C1522.19,945.943 1523.64,945.751 1525.04,945.514L1688.09,919.655L1709.5,868.812L1697.31,926.736L1697.34,926.765L1819.3,935.913L1688.67,935.913C1680.73,937.822 1673.08,939.64 1665.77,941.363L1761.35,995.389L1633.06,948.984C1632.9,949.019 1632.75,949.056 1632.59,949.091L1489.9,1195.17L1588.53,959.041C1586.87,959.405 1585.23,959.76 1583.63,960.109L1271.82,1225.67L1551.35,966.733C1525.47,971.649 1507.83,973.746 1488.06,974.758C1471.31,975.638 1457.48,975.51 1448.47,975.264L1470.75,996.99L1322,1064.88C1297.52,1057.06 1270.72,1063.39 1252.33,1081.31L1206.53,1125.97C1199.43,1132.84 1189.58,1136.05 1179.78,1134.63L1122.62,1126.39C1115.43,1125.34 1108.83,1121.9 1103.88,1116.64L1008.96,1016.07L1004.51,1011.73C1002.06,1023.38 1003.96,1027.89 1006.98,1040.03L1081.68,1335.17C1085.88,1352.11 1095.5,1367.21 1109.06,1378.22C1146.05,1408.23 1165.69,1454.66 1161.46,1502.11L1140.4,1667L1772.87,1667L1756.13,1445.68L1556.44,1449.7L1759.07,1395.37C1761.02,1389.79 1763.58,1384.41 1766.73,1379.34L1982.77,1032.84C1998.08,1008.26 1999.05,977.404 1985.35,951.975Z" style="fill:rgb(26,26,26);fill-rule:nonzero;"/>
            </g>
            <g transform="matrix(1.18023,0,0,1.10099,227.165,2371.38)">
                <path d="M1110,1696L1075.19,2026.73L1220.95,2026.73L1246.99,1839.7L1250.95,2026.73L1820.19,2026.73L1807,1696L1696.75,1696.27L1660.52,1882.89L1666.55,1696.27L1110,1696Z" style="fill:rgb(26,26,26);fill-rule:nonzero;"/>
            </g>
        </g>
    </g>
</svg>
