<svg width="308" height="246" viewBox="0 0 308 246" fill="none" xmlns="http://www.w3.org/2000/svg">
<filter id='noiseFilter'>
<feTurbulence 
    type='fractalNoise' 
    baseFrequency='0.65' 
    numOctaves='3' 
    stitchTiles='stitch' />
</filter>
<circle cx="209.5" cy="156.5" r="89.5" fill="#FD49A0" fill-opacity="0.64" filter="url(#noiseFilter)"/>
<g style="mix-blend-mode:hard-light" opacity="0.9">
<path d="M124.281 65L162.781 125.114L181.693 101.474L197.228 128.491L262.07 119.711L308 121.737L236.404 142.675L256.667 192.658L228.298 158.211L223.57 216.298H216.816L201.956 224.404L176.289 204.14H168.184L159.404 158.211L0 185.904L141.842 139.298L124.281 65Z" fill="white" fill-opacity="0.9"/>
<path d="M157.377 137.947L158.728 131.868L159.403 137.947L181.693 139.973L178.991 120.386L179.667 118.359L184.395 139.973L187.772 140.649L187.096 142.675L172.237 142L120.228 156.184L120.903 154.158L167.509 140.649L147.246 139.298L147.921 137.947H157.377Z" fill="#FD49A0"/>
<path d="M210.737 146.053L200.605 128.491H197.228L210.737 148.079L208.71 191.307L210.737 193.333L213.439 142L228.298 158.886V156.184L214.114 139.974V135.921C223.674 139.703 227.553 134.795 228.298 131.868L235.053 143.351H237.079L229.649 129.167L226.272 128.491C223.57 137.137 217.041 134.795 214.114 132.544H212.088L210.737 146.053Z" fill="#FD49A0"/>
<path d="M190.473 148.755L159.403 158.211V160.237L190.473 152.132L201.956 223.728L206.009 222.378L193.175 152.132L195.202 150.106L193.175 148.755L190.473 142.676V148.755Z" fill="#FD49A0"/>
</g>
<g style="mix-blend-mode:hard-light" opacity="0.9">
<path d="M273.562 23.3885L255.374 34.9355L253.209 26.0595L245.519 31.4743L228.895 20.817L216.07 15.5244L232.994 30.3681L221.087 41.4646L233.234 35.6506L227.133 52.1463L228.981 53.0062L232.015 57.1156L241.618 54.8388L243.836 55.8706L252.085 44.4212L292.175 72.2913L259.298 41.4821L273.562 23.3885Z" fill="white" fill-opacity="0.9"/>
<path d="M255.219 39.1352L255.623 37.2999L254.665 38.8772L248.308 36.5941L251.541 31.5785L251.614 30.9381L247.569 36.2502L246.559 36.005L246.486 36.6455L250.637 38.3523L263.062 48.8543L263.135 48.2139L252.103 38.5846L257.819 40.7946L257.807 40.339L255.219 39.1352Z" fill="#750075"/>
<path d="M239.587 34.56L244.595 31.0447L245.519 31.4746L239.329 35.1144L234.381 47.2003L233.568 47.4968L239.364 33.1072L233.148 35.8358L233.492 35.0965L239.437 32.4668L239.953 31.3579C236.856 31.1758 236.419 29.339 236.588 28.4433L233.278 30.7252L232.723 30.4673L236.562 27.5321L237.572 27.7772C237.211 30.4867 239.295 30.6773 240.383 30.4338L240.937 30.6918L239.587 34.56Z" fill="#750075"/>
<path d="M244.788 37.8788L252.085 44.4216L251.827 44.976L244.358 38.8029L232.101 56.9312L231.165 56.0456L243.619 38.4589L243.322 37.6466L244.049 37.5349L245.562 36.2155L244.788 37.8788Z" fill="#750075"/>
</g>
</svg>
