<svg width="92" height="76" viewBox="0 0 92 76" fill="none" xmlns="http://www.w3.org/2000/svg"><path fill="#fff" d="M0 0h92v76H0z"/><path fill-rule="evenodd" clip-rule="evenodd" d="M1.707 75.355h4.46V64.629h6.879v-3.575H6.168v-6.027h7.286v-3.712H1.707v24.04zm13.62-5.517c0 3.95 2.28 6.027 6.435 6.027 5.278 0 6.605-2.792 6.605-5.924V51.315h-4.46v17.842c0 1.362 0 2.929-2.043 2.929-2.077 0-2.077-1.6-2.077-2.894V51.315h-4.46v18.523zM44.54 51.315h-4.05l.442 17.638-4.324-17.638H30.92v24.04h4.154l-.409-18.013 4.29 18.013h5.584v-24.04zm2.452 24.04h7.116c5.584 0 6.095-3.133 6.095-6.47V57.65c0-1.907-.17-3.542-1.43-4.836-1.464-1.498-3.2-1.498-4.631-1.498h-7.15v24.04zm4.426-20.532h1.736c1.941 0 2.656.306 2.656 2.451V69.26c0 .886 0 2.282-1.6 2.52-.374.069-.715.069-2.792.069V54.823z" fill="#EF4523"/><mask id="mask0" mask-type="alpha" maskUnits="userSpaceOnUse" x="0" y="25" width="92" height="26"><path d="M92 50.463v-25.06H.59v25.06H92z" fill="#fff"/></mask><g mask="url(#mask0)"><path fill-rule="evenodd" clip-rule="evenodd" d="M7.843 44.47c0 1.056 0 2.486-1.566 2.486-1.6 0-1.6-1.328-1.6-2.35v-2.281H.59v3.234c0 2.793 1.26 4.904 5.618 4.904 6.06 0 6.094-3.848 6.094-5.96v-18.59h-4.46V44.47zm6.673-.034c0 3.95 2.281 6.027 6.436 6.027 5.277 0 6.605-2.793 6.605-5.925V25.913h-4.46v17.842c0 1.362 0 2.928-2.043 2.928-2.077 0-2.077-1.6-2.077-2.894V25.913h-4.46v18.523zm14.978.545c0 4.052 2.894 5.482 6.674 5.482 1.634 0 4.392-.239 5.72-2.384.783-1.26.783-2.587.783-4.733 0-1.94 0-2.69-.647-3.779-.51-.885-1.43-1.737-2.281-2.35l-4.359-2.962c-.953-.647-1.396-1.09-1.396-3.098 0-1.941.851-2.384 2.043-2.384 1.941 0 1.941 1.294 1.941 2.452v1.736h4.392v-2.383c0-4.12-3.54-5.176-6.128-5.176-2.316 0-3.95.681-4.835 1.43-1.567 1.294-1.737 3.099-1.737 4.972 0 2.451.613 4.12 2.86 5.652l4.222 2.826c1.158.783 1.498 1.498 1.498 3.2 0 2.146 0 3.576-2.178 3.576-2.146 0-2.146-1.396-2.146-2.792v-2.792h-4.426v3.507zm13.858-15.595h4.426v20.566h4.46V29.386h4.427v-3.473H43.352v3.473zm14.947 20.566h4.393V25.913h-4.393v24.04zm19.575-15.254v-3.712c0-1.702 0-5.584-6.538-5.584-.92 0-3.643.034-5.38 1.907-1.09 1.192-1.192 2.52-1.192 4.46v13.076c0 1.328 0 3.2 1.907 4.46 1.396.92 3.405 1.158 4.665 1.158 6.538 0 6.538-4.188 6.538-6.13V40.93H73.48v3.132c0 1.465 0 2.963-2.077 2.963-1.974 0-2.213-1.294-2.213-2.724V31.429c0-1.09.102-2.622 2.043-2.622 1.94 0 2.247 1.022 2.247 2.827v3.064h4.393zm2.175 15.254H92v-3.711h-7.525v-7.39h6.776V35.21h-6.776v-5.653h7.219V25.88H80.049v24.073z" fill="#EF4523"/></g><mask id="mask1" mask-type="alpha" maskUnits="userSpaceOnUse" x="0" y="0" width="92" height="26"><path d="M91.486 0H0v25.06h91.486V0z" fill="#fff"/></mask><g mask="url(#mask1)"><path fill-rule="evenodd" clip-rule="evenodd" d="M0 24.55h4.427l.647-3.916h4.085l.58 3.916h4.494L9.738.51H4.665L0 24.55zM7.218 6.606l1.465 10.317H5.618l1.6-10.317zm8.887 17.944h4.427V13.96h2.11c2.316 0 2.316 1.158 2.316 2.793v5.14c0 .716.136 1.738.647 2.657h4.869c-.92-.75-1.021-2.01-1.021-3.235v-4.903c0-3.235-2.214-3.882-3.27-4.154 2.146-.477 3.1-1.021 3.1-4.086V5.584c0-2.213 0-5.107-4.325-5.107h-8.853V24.55zm4.427-20.6h2.315c.987 0 2.043 0 2.043 1.975v2.28c0 1.227-.034 2.316-2.043 2.316h-2.315V3.95zm9.908.034h4.426V24.55h4.46V3.984h4.427V.51H30.44v3.473zM48.622 24.55h4.46V13.824h6.878V10.25h-6.877V4.222h7.286V.511H48.622V24.55zM74.908 6.06c0-2.315-.409-3.574-1.6-4.562C72.183.578 70.48 0 68.301 0c-2.724 0-4.528.851-5.448 1.839-1.226 1.294-1.26 3.098-1.26 4.12v13.45c0 3.064 1.328 5.651 6.742 5.651 1.6 0 3.848-.204 5.278-1.702.953-.953 1.294-2.18 1.294-3.95V6.061zm-4.46 12.702c0 1.157 0 2.825-2.18 2.825s-2.247-1.566-2.247-2.928V6.538c0-1.329 0-3.167 2.281-3.167 2.145 0 2.145 1.736 2.145 2.996v12.395zm6.669 5.788h4.426V13.96h2.112c2.315 0 2.315 1.158 2.315 2.793v5.14c0 .716.136 1.738.647 2.657h4.869c-.92-.75-1.022-2.01-1.022-3.235v-4.903c0-3.235-2.213-3.882-3.269-4.154 2.146-.477 3.099-1.021 3.099-4.086V5.584c0-2.213 0-5.107-4.324-5.107h-8.853V24.55zm4.426-20.6h2.316c.987 0 2.043 0 2.043 1.975v2.28c0 1.227-.034 2.316-2.043 2.316h-2.316V3.95z" fill="#EF4523"/></g></svg>