<svg width="380" height="220" viewBox="0 0 380 220" fill="none" xmlns="http://www.w3.org/2000/svg">
<rect width="380" height="219.404" fill="#EBEBEB"/>
<g opacity="0.9">
<path d="M160.281 30L198.781 90.114L217.693 66.4737L233.228 93.4912L298.07 84.7105L344 86.7368L272.404 107.675L292.667 157.658L264.298 123.211L259.57 181.298H252.816L237.956 189.404L212.289 169.14H204.184L195.404 123.211L36 150.904L177.842 104.298L160.281 30Z" fill="white" fill-opacity="0.9"/>
<path d="M193.377 102.947L194.728 96.8681L195.403 102.947L217.693 104.973L214.991 85.3857L215.667 83.3594L220.395 104.973L223.772 105.649L223.096 107.675L208.237 107L156.228 121.184L156.903 119.158L203.509 105.649L183.246 104.298L183.921 102.947H193.377Z" fill="#EBEBEB"/>
<path d="M246.737 111.053L236.605 93.4912H233.228L246.737 113.079L244.71 156.307L246.737 158.333L249.439 107L264.298 123.886V121.184L250.114 104.974V100.921C259.674 104.703 263.553 99.7953 264.298 96.8684L271.053 108.351H273.079L265.649 94.1666L262.272 93.4912C259.57 102.137 253.041 99.7953 250.114 97.5438H248.088L246.737 111.053Z" fill="#EBEBEB"/>
<path d="M226.473 113.755L195.403 123.211V125.237L226.473 117.132L237.956 188.728L242.009 187.378L229.175 117.132L231.202 115.106L229.175 113.755L226.473 107.676V113.755Z" fill="#EBEBEB"/>
</g>
</svg>
