<svg viewBox="0 0 208 77" fill="none" xmlns="http://www.w3.org/2000/svg"><g clip-path="url(#logo-worded_svg__a)" fill="currentColor"><path d="M37.635 36.41v.184h-8.293v-.184c1.442-.411 2.299-1.554 2.299-6.357V7.226L18.794 36.592h-1.037L4.552 8.096v20.081c0 6.358 1.308 7.776 4.012 8.233v.184H0v-.184c2.434-.457 3.831-1.875 3.831-8.233V8.874c0-3.202-1.532-4.62-3.696-5.168v-.184h6.4L19.832 32.43 32.497 3.522H37.5v.184c-1.397.366-2.029 1.693-2.029 6.724v19.621c0 4.803.766 5.947 2.164 6.358v.001ZM58.28 31.287c-1.307 3.293-4.417 5.58-8.654 5.58-6.536 0-11.087-5.26-11.087-12.35s4.598-12.351 10.773-12.351c5.814 0 8.789 4.162 8.789 8.737 0 .778-.09 1.373-.181 1.692H42.145c0 7.227 4.191 11.389 9.6 11.389 2.614 0 4.643-.778 6.4-2.79l.135.092v.001Zm-16.136-9.24h12.575c.135-.548.18-1.235.18-2.103 0-4.208-1.666-7.182-5.588-7.182s-6.986 3.75-7.167 9.286ZM67.114 36.456v.137h-8.067v-.137c1.713-.55 2.253-1.327 2.253-5.032V7.455c0-3.98-.631-5.123-2.209-5.672l.044-.137C61.435 1.51 63.687.823 65.13 0l.09.046c-.134.915-.405 2.882-.405 7.41v23.97c0 3.75.632 4.573 2.3 5.03ZM77.796 36.456v.137h-8.068v-.137c1.713-.55 2.254-1.327 2.254-5.032V7.455c0-3.98-.632-5.123-2.21-5.672l.045-.137C72.116 1.51 74.369.823 75.812 0l.09.046c-.135.915-.405 2.882-.405 7.41v23.97c0 3.75.632 4.573 2.299 5.03ZM109.619 36.455v.138h-8.158v-.138c1.757-.55 2.299-1.326 2.299-5.03V19.621c0-3.98-.632-5.077-2.209-5.672l.044-.09c2.163-.184 4.506-.87 5.994-1.694l.091.091c-.18.87-.405 2.837-.405 7.364v11.802c0 3.613.632 4.573 2.344 5.031v.001Zm15.731 0v.138h-8.158v-.138c1.712-.457 2.389-1.417 2.389-5.03V21.27c0-4.666-2.118-7-5.634-7-2.343 0-4.553 1.51-5.725 3.751l-.045-.046c.811-2.653 3.56-5.809 7.663-5.809 4.552 0 7.211 3.156 7.211 7.822v11.435c0 3.704.542 4.483 2.299 5.031v.001ZM101.058 24.518c0 7.18-4.372 12.35-11.314 12.35-6.986 0-11.357-5.168-11.357-12.35 0-6.678 4.371-12.35 11.358-12.35 6.94 0 11.313 5.672 11.313 12.35Zm-3.876 0c0-6.816-2.975-11.756-7.438-11.756-4.506 0-7.48 4.94-7.48 11.756 0 7.364 2.975 11.802 7.482 11.802 4.462 0 7.437-4.437 7.437-11.802h-.001ZM21.545 52.666l-.18.09c-1.443-6.265-3.831-8.507-8.97-8.507H6.402v15.095h5.273c4.777 0 5.86-1.371 6.491-4.07h.181v9.605h-.18c-.632-3.11-1.713-4.94-6.492-4.94H6.401v9.514c0 5.489.902 6.632 2.615 7.09v.183H.406v-.183c1.353-.412 2.164-1.555 2.164-6.45V50.286c0-4.894-.811-6.038-2.164-6.45v-.184H21.14l.405 9.012ZM115.932 75.49v.091c-1.803.046-3.831.641-5.634 1.418l-.045-.046v-15.78c0-5.901-2.434-8.28-6.22-8.28-4.146 0-7.21 3.704-7.21 11.572 0 7.044 2.795 10.43 6.94 10.43 2.254 0 4.326-1.465 5.498-3.751l.046.046c-.811 2.744-3.471 5.809-7.392 5.809-5.364 0-8.925-4.757-8.925-11.298 0-9.377 5.139-13.403 11.042-13.403 2.615 0 4.733.96 6.22 2.516v-7.227c0-3.98-.676-5.123-2.254-5.672l.09-.137c2.253-.137 4.507-.823 5.995-1.647l.045.046c-.135.915-.405 2.882-.405 7.41v22.368c0 4.118.675 5.031 2.209 5.535ZM136.864 75.49v.091c-1.759.046-3.787.641-5.59 1.418l-.089-.046V64.1l-9.511 2.79c-.362.595-.676 1.601-.676 2.745 0 3.613 2.253 5.168 4.733 5.168 1.893 0 3.65-.778 4.643-2.744l.089.046c-.721 2.837-3.155 4.894-6.445 4.894-3.606 0-6.446-2.47-6.446-6.22 0-1.418.495-2.928 1.081-3.568l12.53-3.797V61.86c0-6.358-1.668-8.965-5.183-8.965-2.796 0-5.635 2.15-5.814 8.37l-.09.047-1.397-6.221c1.667-1.555 4.282-2.79 7.302-2.79 5.363 0 8.699 3.246 8.699 9.787v7.868c0 4.118.631 5.031 2.164 5.535ZM192.27 76.589v.137h-8.159v-.137c1.757-.55 2.299-1.327 2.299-5.031V59.756c0-3.98-.631-5.078-2.209-5.672l.044-.091c2.164-.184 4.507-.87 5.995-1.694l.091.091c-.181.87-.406 2.837-.406 7.364v11.802c0 3.614.632 4.574 2.345 5.031v.002Zm15.73 0v.137h-8.158v-.137c1.713-.458 2.39-1.418 2.39-5.031V61.403c0-4.666-2.118-6.999-5.635-6.999-2.343 0-4.552 1.51-5.724 3.75l-.046-.045c.811-2.654 3.561-5.81 7.663-5.81 4.553 0 7.211 3.156 7.211 7.822v11.435c0 3.705.542 4.483 2.299 5.031v.002ZM43.578 64.642c0 7.18-4.372 12.35-11.314 12.35-6.986 0-11.358-5.168-11.358-12.35 0-6.678 4.372-12.35 11.358-12.35 6.94 0 11.313 5.672 11.313 12.35Zm-3.877 0c0-6.815-2.974-11.756-7.437-11.756-4.507 0-7.481 4.94-7.481 11.756 0 7.364 2.976 11.802 7.482 11.802 4.463 0 7.437-4.437 7.437-11.802ZM156.515 71.558V59.756c0-4.235.198-6.23.371-7.181h-14.343v-3.888l-.181-.09c-.856 1.417-3.155 3.566-4.778 4.254v.274h1.578v16.33c0 5.076 2.343 7.546 6.31 7.546 3.336 0 5.273-2.514 5.544-4.345l-.135-.045c-.631 1.692-2.119 2.561-4.102 2.561-2.523 0-4.236-1.554-4.236-6.13V53.126h5.683c2.917 0 4.774.347 4.774 8.099v10.334c0 3.704-.54 4.482-2.299 5.03v.138h8.068v-.137c-1.668-.458-2.254-1.28-2.254-5.031ZM154.654 48.596c1.283 0 2.322-1.055 2.322-2.356 0-1.302-1.039-2.357-2.322-2.357-1.282 0-2.322 1.055-2.322 2.356 0 1.302 1.04 2.357 2.322 2.357ZM61.69 71.082c-1.126 2.242-3.336 3.75-5.679 3.75-3.516 0-5.634-2.333-5.634-6.999v-8.096c0-4.62.27-6.495.405-7.364l-.045-.09c-1.488.822-3.742 1.51-5.995 1.692l-.09.091c1.578.595 2.255 1.692 2.255 5.673v9.376c0 4.62 2.659 7.822 7.166 7.822 4.146 0 6.896-3.202 7.707-5.81l-.091-.045h.001Z"></path><path d="M74.225 71.54V59.736c0-4.528.225-6.495.406-7.364l-.091-.09c-1.488.822-3.831 1.51-5.995 1.692l-.044.091c1.577.595 2.209 1.692 2.209 5.673V71.54c0 1.81-.13 2.922-.467 3.65a1.958 1.958 0 0 1-3.581 0c-.338-.727-.467-1.839-.467-3.65v-1.562l.003.006V59.74c0-4.62.225-6.495.406-7.364l-.09-.092c-1.488.823-3.696 1.51-5.995 1.694l-.045.09c1.577.596 2.209 1.693 2.209 5.673h-.003v11.802c0 3.613-.631 4.573-2.344 5.031v.137H76.57v-.137c-1.713-.458-2.345-1.418-2.345-5.031v-.003ZM90 71.54V60.103c0-4.666-2.66-7.822-7.212-7.822-4.101 0-6.85 3.156-7.663 5.81l.046.046c1.172-2.242 3.38-3.751 5.724-3.751 3.516 0 5.635 2.333 5.635 6.999V71.54c0 3.614-.677 4.574-2.39 5.032v.137h8.158v-.137C90.54 76.022 90 75.245 90 71.54ZM182.746 64.618c0 7.18-4.372 12.35-11.314 12.35-6.986 0-11.358-5.168-11.358-12.35 0-6.678 4.372-12.35 11.358-12.35 6.941 0 11.314 5.672 11.314 12.35Zm-3.877 0c0-6.815-2.975-11.756-7.437-11.756-4.507 0-7.481 4.94-7.481 11.756 0 7.364 2.976 11.802 7.482 11.802 4.463 0 7.437-4.437 7.437-11.802h-.001Z"></path></g><defs><clipPath id="logo-worded_svg__a"><path fill="#fff" d="M0 0h208v77H0z"></path></clipPath></defs></svg>